<svg version="1.1" id="Layer_1" xmlns="http://www.w3.org/2000/svg" xmlns:xlink="http://www.w3.org/1999/xlink" x="0px" y="0px" viewBox="0 0 32 32" style="enable-background:new 0 0 32 32;" xml:space="preserve"><g><path class="st0" d="M29.67,7.41c-0.51,0-0.92-0.41-0.92-0.91c0-0.5,0.41-0.91,0.92-0.91C30.18,5.6,30.6,6,30.6,6.5 C30.6,7.01,30.18,7.41,29.67,7.41 M25.59,11.16c0.83,0,1.5-0.66,1.5-1.48c0-0.82-0.67-1.48-1.5-1.48c-0.83,0-1.5,0.66-1.5,1.48 C24.09,10.5,24.76,11.16,25.59,11.16 M32,13.88c0-0.5-0.41-0.91-0.92-0.91c-0.51,0-0.92,0.41-0.92,0.91c0,0.5,0.41,0.91,0.92,0.91 C31.59,14.79,32,14.38,32,13.88 M15.55,31.97c8.26,0,15.01-6.34,15.52-14.34c-1.88-0.49-3.35-1.98-3.78-3.87 c-3.11-0.16-5.58-2.69-5.58-5.79c0-0.26,0.02-0.52,0.05-0.77c-2.07-0.76-3.55-2.73-3.55-5.03c0-0.2,0.01-0.4,0.03-0.6 c-0.88-0.15-1.78-0.23-2.71-0.23C6.96,1.34,0,8.2,0,16.65C0,25.11,6.96,31.97,15.55,31.97 M22.72-0.03c-1.01,0-1.83,0.81-1.83,1.8 s0.82,1.8,1.83,1.8c1.01,0,1.83-0.81,1.83-1.8S23.73-0.03,22.72-0.03"/><path class="st1" d="M7.06,17.17c1.02,0,1.85,0.81,1.85,1.82c0,1.01-0.83,1.82-1.85,1.82c-1.02,0-1.85-0.81-1.85-1.82 C5.21,17.98,6.04,17.17,7.06,17.17 M10.76,8.46c-1.02,0-1.85,0.81-1.85,1.82c0,1.01,0.83,1.82,1.85,1.82 c1.02,0,1.85-0.81,1.85-1.82C12.6,9.28,11.78,8.46,10.76,8.46 M14.45,24.52c0-1-0.83-1.82-1.85-1.82c-1.02,0-1.85,0.81-1.85,1.82 c0,1,0.83,1.82,1.85,1.82C13.62,26.34,14.45,25.53,14.45,24.52 M18.23,12.33c-1.02,0-1.85,0.81-1.85,1.82 c0,1.01,0.83,1.82,1.85,1.82c1.02,0,1.85-0.81,1.85-1.82C20.07,13.14,19.25,12.33,18.23,12.33 M23.75,20.36 c-1.02,0-1.85,0.81-1.85,1.82c0,1.01,0.83,1.82,1.85,1.82c1.02,0,1.85-0.81,1.85-1.82C25.59,21.18,24.77,20.36,23.75,20.36"/></g></svg>