<svg version="1.1" id="Layer_1" xmlns="http://www.w3.org/2000/svg" xmlns:xlink="http://www.w3.org/1999/xlink" x="0px" y="0px" viewBox="0 0 18 18" style="enable-background:new 0 0 18 18;" xml:space="preserve"><path class="st0" d="M12.27,9l5.05-5.05c0.9-0.9,0.9-2.37,0-3.27c-0.9-0.9-2.37-0.9-3.27,0L9,5.73L3.95,0.68 c-0.9-0.9-2.37-0.9-3.27,0s-0.9,2.37,0,3.27L5.73,9l-5.05,5.05c-0.9,0.9-0.9,2.37,0,3.27c0.9,0.9,2.37,0.9,3.27,0L9,12.27l5.05,5.05 c0.9,0.9,2.37,0.9,3.27,0c0.9-0.9,0.9-2.37,0-3.27L12.27,9z"/></svg>